<mxfile host="Electron" agent="Mozilla/5.0 (X11; Linux x86_64) AppleWebKit/537.36 (KHTML, like Gecko) draw.io/24.7.17 Chrome/128.0.6613.36 Electron/32.0.1 Safari/537.36" version="24.7.17">
  <diagram name="Page-1" id="03018318-947c-dd8e-b7a3-06fadd420f32">
    <mxGraphModel dx="2128" dy="998" grid="1" gridSize="10" guides="1" tooltips="1" connect="1" arrows="1" fold="1" page="0" pageScale="1" pageWidth="1100" pageHeight="850" background="none" math="0" shadow="0">
      <root>
        <mxCell id="0" />
        <mxCell id="1" parent="0" />
        <mxCell id="CsRt9Y-S0o4n-CeYNOZ7-16" value="" style="rounded=0;whiteSpace=wrap;html=1;" vertex="1" parent="1">
          <mxGeometry x="-120" y="200" width="360" height="280" as="geometry" />
        </mxCell>
        <mxCell id="CsRt9Y-S0o4n-CeYNOZ7-17" value="Behold VTT: Register" style="text;html=1;align=center;verticalAlign=middle;whiteSpace=wrap;rounded=0;fontStyle=1" vertex="1" parent="1">
          <mxGeometry x="-70" y="230" width="250" height="30" as="geometry" />
        </mxCell>
        <mxCell id="CsRt9Y-S0o4n-CeYNOZ7-19" value="Email:" style="text;html=1;align=right;verticalAlign=middle;whiteSpace=wrap;rounded=0;" vertex="1" parent="1">
          <mxGeometry x="-70" y="280" width="70" height="30" as="geometry" />
        </mxCell>
        <mxCell id="CsRt9Y-S0o4n-CeYNOZ7-18" value="&amp;nbsp;your@email.com" style="rounded=0;whiteSpace=wrap;html=1;fontColor=#999999;align=left;" vertex="1" parent="1">
          <mxGeometry y="280" width="170" height="30" as="geometry" />
        </mxCell>
        <mxCell id="CsRt9Y-S0o4n-CeYNOZ7-20" value="Password:" style="text;html=1;align=right;verticalAlign=middle;whiteSpace=wrap;rounded=0;" vertex="1" parent="1">
          <mxGeometry x="-70" y="320" width="70" height="30" as="geometry" />
        </mxCell>
        <mxCell id="CsRt9Y-S0o4n-CeYNOZ7-21" value="&amp;nbsp;********" style="rounded=0;whiteSpace=wrap;html=1;align=left;fontColor=#999999;" vertex="1" parent="1">
          <mxGeometry y="320" width="170" height="30" as="geometry" />
        </mxCell>
        <mxCell id="CsRt9Y-S0o4n-CeYNOZ7-23" value="Register" style="rounded=1;whiteSpace=wrap;html=1;" vertex="1" parent="1">
          <mxGeometry x="60" y="410" width="110" height="30" as="geometry" />
        </mxCell>
        <mxCell id="CsRt9Y-S0o4n-CeYNOZ7-26" value="Confirm:" style="text;html=1;align=right;verticalAlign=middle;whiteSpace=wrap;rounded=0;" vertex="1" parent="1">
          <mxGeometry x="-70" y="360" width="70" height="30" as="geometry" />
        </mxCell>
        <mxCell id="CsRt9Y-S0o4n-CeYNOZ7-27" value="&amp;nbsp;********" style="rounded=0;whiteSpace=wrap;html=1;align=left;fontColor=#999999;" vertex="1" parent="1">
          <mxGeometry y="360" width="170" height="30" as="geometry" />
        </mxCell>
      </root>
    </mxGraphModel>
  </diagram>
</mxfile>
